<svg width="128" height="128" viewBox="0 0 128 128" fill="none" xmlns="http://www.w3.org/2000/svg">
<g filter="url(#filter0_d_2626_797)">
<rect x="20" y="12" width="80" height="80" rx="40" fill="white"/>
<path d="M71.0448 44.6611V39.5702C71.7186 39.2555 72.289 38.7558 72.6897 38.1293C73.0905 37.5028 73.305 36.7754 73.3083 36.0317V35.9127C73.3055 34.8734 72.8914 33.8774 72.1566 33.1425C71.4219 32.4076 70.4261 31.9935 69.3869 31.9907H69.2679C68.2288 31.9935 67.233 32.4076 66.4982 33.1425C65.7634 33.8774 65.3494 34.8734 65.3466 35.9127V36.0317C65.3499 36.7754 65.5644 37.5028 65.9651 38.1293C66.3659 38.7558 66.9363 39.2555 67.61 39.5702V44.6717C65.673 44.9679 63.8487 45.7708 62.3216 46.999L48.3233 36.0952C48.5898 35.0974 48.5023 34.038 48.0758 33.0975C47.6493 32.1569 46.91 31.3933 45.9839 30.9364C45.0578 30.4796 44.0021 30.3579 42.9964 30.5919C41.9906 30.826 41.0971 31.4014 40.4677 32.2202C39.8384 33.039 39.5122 34.0506 39.5447 35.0829C39.5771 36.1152 39.9663 37.1043 40.6458 37.8819C41.3253 38.6596 42.2533 39.1777 43.2717 39.3481C44.2902 39.5184 45.3362 39.3306 46.2317 38.8165L59.9948 49.5325C58.7551 51.403 58.1084 53.604 58.139 55.848C58.1697 58.0919 58.8763 60.2744 60.1666 62.1104L55.9782 66.2995C55.642 66.1923 55.2919 66.1353 54.9391 66.1302C54.22 66.1302 53.517 66.3435 52.9191 66.743C52.3212 67.1426 51.8552 67.7105 51.5801 68.375C51.3049 69.0394 51.2329 69.7706 51.3732 70.476C51.5135 71.1814 51.8597 71.8293 52.3682 72.3379C52.8767 72.8464 53.5245 73.1927 54.2298 73.3331C54.935 73.4734 55.6661 73.4013 56.3304 73.1261C56.9948 72.8509 57.5626 72.3848 57.9621 71.7868C58.3616 71.1888 58.5748 70.4858 58.5748 69.7666C58.5699 69.4137 58.5128 69.0634 58.4056 68.7272L62.549 64.5831C63.9016 65.6164 65.4723 66.3269 67.1413 66.6605C68.8103 66.994 70.5334 66.9418 72.1791 66.5077C73.8248 66.0737 75.3496 65.2692 76.6371 64.1559C77.9246 63.0426 78.9407 61.6498 79.6079 60.0838C80.2751 58.5177 80.5757 56.82 80.4869 55.12C80.398 53.4201 79.9219 51.763 79.0951 50.2751C78.2682 48.7872 77.1124 47.508 75.7158 46.535C74.3193 45.5621 72.7189 44.9211 71.0369 44.6611H71.0448ZM69.3208 61.4333C68.1875 61.4307 67.0803 61.0922 66.1393 60.4605C65.1983 59.8287 64.4656 58.9322 64.0338 57.8842C63.602 56.8361 63.4905 55.6836 63.7134 54.5722C63.9363 53.4608 64.4836 52.4404 65.2861 51.64C66.0886 50.8395 67.1103 50.295 68.2221 50.0751C69.334 49.8553 70.486 49.97 71.5327 50.4047C72.5794 50.8395 73.4737 51.5748 74.1027 52.5177C74.7317 53.4606 75.0672 54.5689 75.0667 55.7024C75.0667 57.2231 74.4627 58.6814 73.3876 59.7567C72.3125 60.8319 70.8544 61.436 69.334 61.436" fill="#FF7A59"/>
</g>
<defs>
<filter id="filter0_d_2626_797" x="0" y="0" width="128" height="128" filterUnits="userSpaceOnUse" color-interpolation-filters="sRGB">
<feFlood flood-opacity="0" result="BackgroundImageFix"/>
<feColorMatrix in="SourceAlpha" type="matrix" values="0 0 0 0 0 0 0 0 0 0 0 0 0 0 0 0 0 0 127 0" result="hardAlpha"/>
<feOffset dx="4" dy="12"/>
<feGaussianBlur stdDeviation="12"/>
<feColorMatrix type="matrix" values="0 0 0 0 0.109804 0 0 0 0 0.172549 0 0 0 0 0.25098 0 0 0 0.08 0"/>
<feBlend mode="normal" in2="BackgroundImageFix" result="effect1_dropShadow_2626_797"/>
<feBlend mode="normal" in="SourceGraphic" in2="effect1_dropShadow_2626_797" result="shape"/>
</filter>
</defs>
</svg>
