<svg width="128" height="128" viewBox="0 0 128 128" fill="none" xmlns="http://www.w3.org/2000/svg">
<g filter="url(#filter0_d_2626_787)">
<rect x="20" y="12" width="80" height="80" rx="40" fill="white"/>
<path d="M51.9187 58.442C51.9408 58.4688 51.9543 58.5016 51.9573 58.5361C51.9604 58.5707 51.953 58.6054 51.936 58.6356C51.8533 58.7698 51.7348 58.8783 51.5938 58.9487C51.4528 59.0191 51.2949 59.0488 51.1379 59.0343C50.8582 59.0042 50.6004 58.869 50.4165 58.656C50.2326 58.4431 50.1365 58.1683 50.1474 57.8872C50.1427 57.5041 50.2126 57.1237 50.3534 56.7673C50.4422 56.544 50.4515 56.297 50.3796 56.0677C50.3078 55.8383 50.1592 55.6407 49.9588 55.5081C49.8402 55.4296 49.7071 55.3757 49.5674 55.3495C49.4276 55.3233 49.284 55.3254 49.1451 55.3557C49.009 55.3843 48.8799 55.4399 48.7656 55.5191C48.6513 55.5984 48.5539 55.6997 48.4793 55.8171C48.3738 55.9977 48.2918 56.1911 48.2352 56.3926C48.2242 56.428 48.2154 56.4559 48.2088 56.4739C48.116 56.724 47.9682 56.7969 47.8681 56.7835C47.8207 56.7769 47.7556 56.7453 47.7139 56.6308C47.6615 56.2999 47.6853 55.9614 47.7834 55.6411C47.8815 55.3207 48.0514 55.027 48.2801 54.7822C48.4722 54.5759 48.7106 54.4183 48.9756 54.3225C49.2407 54.2267 49.5247 54.1953 49.8043 54.231C50.1005 54.2717 50.3819 54.3852 50.6235 54.5614C50.865 54.7376 51.0591 54.9709 51.1883 55.2405C51.3192 55.5718 51.372 55.9288 51.3426 56.2839C51.3133 56.6389 51.2026 56.9824 51.0191 57.2878C50.9959 57.3397 50.9746 57.3873 50.9567 57.4304C50.8907 57.5496 50.8545 57.6831 50.8511 57.8193C50.8477 57.9556 50.8772 58.0906 50.9371 58.2131C50.9878 58.2861 51.0558 58.3453 51.135 58.3856C51.2142 58.4259 51.3022 58.4459 51.391 58.4438C51.4748 58.4426 51.558 58.4309 51.6388 58.4088C51.744 58.3842 51.8527 58.3589 51.9187 58.442L51.9187 58.442ZM77.8424 59.0892C77.7836 60.2964 77.5286 61.4859 77.0873 62.611C74.8858 67.9025 69.632 70.8483 63.3732 70.6618C57.5386 70.488 52.5623 67.3997 50.3843 62.3655C49.0094 62.327 47.694 61.7958 46.678 60.8686C45.6285 59.9739 44.9542 58.7169 44.7891 57.3476C44.6826 56.4056 44.7992 55.4517 45.1293 54.563L43.9061 53.5237C38.3095 48.7837 55.8143 29.2674 61.4131 34.1656C61.4413 34.1903 63.3176 36.037 63.3223 36.0415C63.3298 36.0377 64.3576 35.6006 64.3628 35.5984C69.2734 33.5588 73.2581 34.5436 73.2631 37.798C73.2657 39.4904 72.1905 41.4631 70.4683 43.2538C71.1566 43.9543 71.6439 44.827 71.8793 45.7805C72.0692 46.4457 72.1718 47.1328 72.1846 47.8245C72.2145 48.5142 72.2476 50.1209 72.2509 50.1495C72.2946 50.1628 72.7918 50.2996 72.9425 50.3421C73.9444 50.5618 74.8767 51.025 75.657 51.6907C76.069 52.0935 76.3387 52.6193 76.4257 53.1888C76.5318 53.9278 76.3474 54.6791 75.9112 55.285C76.0247 55.5438 76.1232 55.809 76.2062 56.0792C76.3511 56.5453 76.4566 56.9321 76.4728 56.9895C77.0056 56.9894 77.8424 57.6047 77.8424 59.0892L77.8424 59.0892ZM53.1093 56.1856C52.7287 53.7147 51.0623 52.8439 49.9316 52.7818C49.6478 52.7667 49.3632 52.787 49.0844 52.8422C47.0662 53.2506 45.9264 54.9726 46.1507 57.2101C46.314 58.2138 46.811 59.1331 47.5614 59.8194C48.3117 60.5057 49.2716 60.9189 50.2858 60.9923C50.4799 60.9975 50.6741 60.9839 50.8655 60.9516C52.911 60.6016 53.4465 58.3738 53.1093 56.1856ZM56.5588 40.5004C58.2684 39.0949 60.092 37.8343 62.0108 36.7315C62.0108 36.7315 60.4873 34.9596 60.0272 34.829C57.1973 34.0617 51.084 38.2905 47.1809 43.8774C45.6016 46.1379 43.3408 50.1412 44.4218 52.2C44.8058 52.6621 45.239 53.081 45.7136 53.4494C46.4363 52.4307 47.5268 51.733 48.7545 51.5036C50.2905 47.1858 52.9916 43.3775 56.5588 40.5004ZM62.7094 60.0537C62.7844 60.3821 62.9467 60.6841 63.1792 60.9278C63.4116 61.1716 63.7056 61.348 64.0301 61.4385C64.3676 61.5643 64.7159 61.6592 65.0706 61.7219C69.547 62.4943 73.7319 59.927 74.6741 59.2804C74.7449 59.2319 74.7916 59.2792 74.7348 59.3649C74.7065 59.4105 74.6757 59.4546 74.6426 59.4969C73.4894 60.9889 70.3892 62.7167 66.3558 62.7161C64.5967 62.7157 62.8385 62.0941 62.1929 61.139C61.1913 59.6568 62.1433 57.4936 63.8121 57.719C63.8141 57.7193 64.3832 57.784 64.5431 57.8018C67.1373 58.0513 69.7522 57.6316 72.138 56.5827C74.4149 55.5226 75.2751 54.3558 75.146 53.4114C75.1029 53.118 74.965 52.8469 74.7534 52.6392C74.1308 52.1267 73.3915 51.7754 72.6008 51.6164C72.2392 51.5146 71.9938 51.4496 71.7295 51.3623C71.2595 51.207 71.0271 51.082 70.9745 50.1955C70.9516 49.8078 70.8842 48.4572 70.8598 47.8991C70.8168 46.9211 70.6997 45.5843 69.8726 45.0324C69.6621 44.8938 69.4176 44.8155 69.1657 44.8057C69.0245 44.7972 68.8828 44.8111 68.746 44.847C68.3271 44.9439 67.9453 45.1604 67.647 45.4702C67.2605 45.8195 66.806 46.0852 66.312 46.2506C65.8179 46.416 65.2951 46.4776 64.7761 46.4314C64.1975 46.4072 63.5843 46.3168 62.8813 46.2749C62.7446 46.2669 62.6073 46.2583 62.4702 46.2513C61.5652 46.2751 60.6987 46.6231 60.0286 47.2319C59.3586 47.8408 58.9294 48.67 58.8193 49.5687C58.4169 52.3461 60.4222 53.7814 61.0011 54.6236C61.0906 54.7308 61.146 54.8623 61.1604 55.0012C61.1452 55.1553 61.0714 55.2976 60.9544 55.399V55.3999C60.1536 56.292 59.5908 57.3717 59.318 58.539C59.0453 59.7064 59.0714 60.9237 59.3939 62.0783C59.4704 62.3555 59.5685 62.6264 59.6872 62.8884C61.1504 66.3181 65.6895 67.9151 70.1241 66.4624C70.7047 66.2722 71.2683 66.0335 71.8088 65.7488C72.7799 65.2674 73.6544 64.6119 74.3888 63.8147C75.5309 62.6669 76.2824 61.1885 76.5367 59.5894C76.6702 58.7054 76.4748 58.3635 76.2083 58.1989C76.0199 58.094 75.8022 58.054 75.5888 58.0854C75.4759 57.3912 75.2778 56.7135 74.999 56.0678C73.7325 57.0235 72.3008 57.7377 70.7755 58.1747C68.9404 58.6932 67.0314 58.9003 65.1278 58.7873C63.9031 58.688 63.0929 58.3294 62.7882 59.3228C64.6406 59.9423 66.6075 60.1429 68.5469 59.9103C68.5605 59.9089 68.5743 59.9103 68.5875 59.9142C68.6006 59.9181 68.6128 59.9246 68.6235 59.9333C68.6341 59.942 68.6429 59.9527 68.6493 59.9648C68.6558 59.9769 68.6598 59.9902 68.6612 60.0038C68.6632 60.0267 68.6581 60.0497 68.6465 60.0697C68.6349 60.0896 68.6175 60.1054 68.5965 60.1149C68.5965 60.1149 66.3219 61.1743 62.7094 60.0537ZM56.0476 43.9474C57.5521 42.8912 59.2485 42.1391 61.0415 41.7334C63.0641 41.2647 65.1665 41.259 67.1916 41.7169C67.2624 41.7331 67.3077 41.61 67.2442 41.5744C66.1934 41.0272 65.0333 40.7222 63.8492 40.6818C63.8378 40.6816 63.8267 40.6783 63.8171 40.6721C63.8074 40.666 63.7997 40.6573 63.7947 40.6471C63.7896 40.6369 63.7875 40.6254 63.7886 40.6141C63.7897 40.6027 63.7938 40.5919 63.8007 40.5827C63.9846 40.3413 64.1994 40.1251 64.4397 39.9396C64.4505 39.9312 64.4583 39.9196 64.462 39.9064C64.4657 39.8933 64.4651 39.8793 64.4603 39.8665C64.4555 39.8537 64.4467 39.8428 64.4353 39.8354C64.4239 39.8279 64.4104 39.8243 64.3967 39.825C62.9467 39.9684 61.5532 40.4618 60.3361 41.263C60.3257 41.27 60.3134 41.2738 60.3009 41.2738C60.2883 41.2737 60.2761 41.2699 60.2657 41.2628C60.2553 41.2557 60.2474 41.2457 60.2428 41.234C60.2382 41.2223 60.2373 41.2095 60.2401 41.1972C60.3381 40.8298 60.4824 40.4764 60.6697 40.1454C60.6759 40.1341 60.6783 40.1211 60.6766 40.1083C60.6748 40.0955 60.669 40.0836 60.66 40.0744C60.651 40.0651 60.6393 40.059 60.6265 40.0569C60.6138 40.0548 60.6007 40.0569 60.5892 40.0628C58.8291 41.0343 57.2614 42.3194 55.9633 43.8548C55.9532 43.8664 55.9476 43.8814 55.9478 43.8968C55.948 43.9123 55.9538 43.9272 55.9642 43.9386C55.9746 43.95 55.9888 43.9573 56.0042 43.9589C56.0196 43.9605 56.035 43.9564 56.0476 43.9474ZM67.8357 53.3754C67.9582 53.453 68.105 53.4827 68.248 53.4589C68.3911 53.4352 68.5204 53.3595 68.6112 53.2465C68.7241 53.028 68.5602 52.7316 68.2449 52.5843C68.1223 52.5068 67.9755 52.4771 67.8324 52.5009C67.6894 52.5247 67.5601 52.6004 67.4693 52.7135C67.3563 52.9319 67.5204 53.2283 67.8357 53.3754ZM68.8028 49.8315C68.8784 50.225 69.0416 50.5964 69.2803 50.9183C69.5268 50.8879 69.7762 50.8879 70.0228 50.9183C70.167 50.4864 70.1796 50.0214 70.0591 49.5823C69.8809 48.7721 69.6397 48.2818 69.1413 48.358C68.6431 48.4344 68.6247 49.0214 68.8028 49.8315ZM69.863 51.6926C69.7373 51.6565 69.6035 51.6607 69.4803 51.7047C69.3571 51.7486 69.2508 51.83 69.1763 51.9374C69.1018 52.0448 69.0628 52.1729 69.0648 52.3037C69.0669 52.4344 69.1098 52.5612 69.1876 52.6663C69.2654 52.7714 69.3742 52.8495 69.4987 52.8895C69.6231 52.9296 69.757 52.9297 69.8815 52.8897C70.006 52.8498 70.1149 52.7718 70.1928 52.6669C70.2707 52.5619 70.3138 52.4351 70.316 52.3043C70.334 52.1636 70.297 52.0214 70.2126 51.9073C70.1281 51.7933 70.0028 51.7164 69.863 51.6926Z" fill="black"/>
<path d="M61.589 51.6203C61.5095 51.6091 61.4756 51.5751 61.4656 51.53C61.4347 51.3902 61.6497 51.1602 61.8763 50.9942C62.207 50.7524 62.5943 50.5998 63.001 50.551C63.4077 50.5021 63.8202 50.5588 64.1987 50.7154C64.5524 50.8613 64.8565 51.1061 65.0746 51.4204C65.1556 51.5525 65.1713 51.655 65.1189 51.7087C65.0373 51.7948 64.8293 51.6962 64.4905 51.5476C64.0835 51.3479 63.6338 51.2511 63.1808 51.2655C62.6439 51.3538 62.1125 51.4723 61.589 51.6203ZM64.9654 52.3154C64.8191 52.1615 64.6368 52.0463 64.435 51.9802C64.2332 51.914 64.0181 51.899 63.8091 51.9363C63.5008 51.9691 63.2087 52.0909 62.9684 52.2867C62.8564 52.3671 62.7794 52.4873 62.7532 52.6227C62.7526 52.6377 62.7553 52.6527 62.7612 52.6666C62.767 52.6805 62.7758 52.693 62.787 52.7031C62.8068 52.7211 62.8328 52.731 62.8596 52.7307C62.9705 52.7144 63.079 52.6843 63.1824 52.6412C63.6353 52.4705 64.1246 52.4197 64.603 52.4936C64.8246 52.5186 64.9293 52.5324 64.978 52.4564C64.9905 52.4344 64.9959 52.4091 64.9937 52.3839C64.9915 52.3587 64.9816 52.3348 64.9654 52.3154Z" fill="black"/>
</g>
<defs>
<filter id="filter0_d_2626_787" x="0" y="0" width="128" height="128" filterUnits="userSpaceOnUse" color-interpolation-filters="sRGB">
<feFlood flood-opacity="0" result="BackgroundImageFix"/>
<feColorMatrix in="SourceAlpha" type="matrix" values="0 0 0 0 0 0 0 0 0 0 0 0 0 0 0 0 0 0 127 0" result="hardAlpha"/>
<feOffset dx="4" dy="12"/>
<feGaussianBlur stdDeviation="12"/>
<feColorMatrix type="matrix" values="0 0 0 0 0.109804 0 0 0 0 0.172549 0 0 0 0 0.25098 0 0 0 0.08 0"/>
<feBlend mode="normal" in2="BackgroundImageFix" result="effect1_dropShadow_2626_787"/>
<feBlend mode="normal" in="SourceGraphic" in2="effect1_dropShadow_2626_787" result="shape"/>
</filter>
</defs>
</svg>
